<svg width="128" height="34" viewBox="0 0 128 34" fill="none" xmlns="http://www.w3.org/2000/svg">
<path d="M13.439 20.0583H9.66387V7.54309H13.439V0.00250244C5.82597 0.657527 0 6.64082 0 13.8044C0 20.9681 5.82597 26.9514 13.439 27.6064V20.0583Z" fill="#7B32E8"/>
<path d="M16.1575 0V7.63049C16.701 7.70333 17.2343 7.83274 17.7472 8.01632C18.5822 8.31147 19.347 8.75782 19.9979 9.3299C20.6273 9.88663 21.1264 10.5597 21.4638 11.3065C21.811 12.0845 21.986 12.9206 21.9781 13.7639V13.8001C21.9855 14.6465 21.8105 15.4857 21.4638 16.2674C21.1285 17.0175 20.6292 17.6934 19.9979 18.2515C19.3462 18.825 18.5818 19.2745 17.7472 19.5751C17.2349 19.7625 16.7016 19.8953 16.1575 19.9709V27.6101C23.78 26.965 29.6185 20.9779 29.6185 13.8063C29.6185 6.63477 23.78 0.647604 16.1575 0.0024973V0Z" fill="#1CB7ED"/>
<path fill-rule="evenodd" clip-rule="evenodd" d="M43.3912 18.5225C44.0344 17.9509 44.5432 17.2598 44.885 16.4934C45.2397 15.6939 45.4187 14.8357 45.4114 13.9699V13.9324C45.4194 13.0698 45.2403 12.2147 44.885 11.4189C44.5417 10.6558 44.033 9.96786 43.3912 9.39859C42.7257 8.81251 41.9431 8.35549 41.0885 8.05379C40.1517 7.72385 39.1576 7.55958 38.1569 7.56932H32.8266V20.3692H38.1569C39.1585 20.3792 40.1531 20.2119 41.0885 19.876C41.9424 19.5688 42.7244 19.1091 43.3912 18.5225ZM41.9613 12.4153C42.1673 12.9106 42.27 13.4383 42.2638 13.9699V14.0061C42.2742 14.5375 42.1732 15.0657 41.9667 15.5607C41.7746 16.0105 41.4898 16.4203 41.1285 16.7669C40.7613 17.1135 40.3186 17.3819 39.8306 17.5535C39.2936 17.7409 38.7245 17.8341 38.1515 17.8282H35.8302V10.1116H38.1462C38.72 10.1053 39.2898 10.2015 39.8252 10.395C40.3126 10.572 40.7547 10.843 41.1232 11.1904C41.4877 11.5417 41.7728 11.9583 41.9613 12.4153Z" fill="white"/>
<path d="M46.4454 20.3692V7.56931H49.4517V20.3692H46.4454Z" fill="white"/>
<path d="M60.6533 12.9997H63.585V18.5587C62.8294 19.1508 61.9842 19.6347 61.0771 19.9946C60.0224 20.4064 58.888 20.6088 57.7457 20.589C56.7477 20.6009 55.7566 20.4335 54.826 20.0957C53.9798 19.7857 53.2092 19.3185 52.5606 18.7222C51.9263 18.1278 51.4276 17.4188 51.0948 16.6382C50.7348 15.8016 50.5537 14.9069 50.5618 14.0048V13.9686C50.5353 11.3066 52.2332 8.89503 54.8553 7.87022C55.7633 7.5165 56.7384 7.33935 57.7217 7.34954C58.2805 7.34738 58.8386 7.38914 59.3901 7.4744C59.8655 7.54502 60.333 7.65662 60.7866 7.80779C61.209 7.95086 61.6145 8.13456 61.9966 8.35595C62.38 8.58017 62.7452 8.83058 63.0893 9.10514L61.1957 11.2453C60.9486 11.0468 60.6882 10.8633 60.4161 10.6959C60.1591 10.54 59.888 10.4055 59.6059 10.2939C59.3132 10.1805 59.0093 10.0948 58.6984 10.0379C58.3445 9.97442 57.9847 9.94389 57.6244 9.94673C57.0946 9.94346 56.5711 10.0532 56.0933 10.2676C55.6225 10.4779 55.1987 10.7703 54.8447 11.1292C54.4814 11.4969 54.1964 11.9262 54.0051 12.3941C53.8007 12.8876 53.6981 13.413 53.7026 13.9424V13.9774C53.6959 14.5313 53.7984 15.0816 54.0051 15.6006C54.1969 16.0805 54.4886 16.5198 54.8633 16.893C55.2319 17.258 55.6769 17.5479 56.1706 17.7445C56.6987 17.9514 57.2666 18.0543 57.8389 18.0467C58.9583 18.0467 59.9018 17.7891 60.6693 17.2738L60.6533 12.9997Z" fill="white"/>
<path d="M65.0655 20.3692V7.56931H68.0704V20.3692H65.0655Z" fill="white"/>
<path d="M76.5003 10.1665V20.3692H73.4953V10.1665H69.339V7.56931H80.6565V10.1665H76.5003Z" fill="white"/>
<path d="M81.8639 20.3692V7.56931H92.1486V10.0753H84.8302V12.6713H91.2705V15.1761H84.8302V17.8644H92.2459V20.3692H81.8639Z" fill="white"/>
<path d="M102.736 20.3692L99.671 15.9815L96.5875 20.3692H93.1747L97.936 13.86L93.3693 7.56931H96.882L99.751 11.7198L102.639 7.56931H106.054L101.487 13.8238L106.249 20.3692H102.736Z" fill="white"/>
</svg>
